<?xml version="1.0" standalone="no"?>
<!DOCTYPE svg PUBLIC "-//W3C//DTD SVG 20010904//EN"
 "http://www.w3.org/TR/2001/REC-SVG-20010904/DTD/svg10.dtd">
<svg version="1.0" xmlns="http://www.w3.org/2000/svg"
  width="100%" height="100%"  viewBox="0 0 200.000000 200.000000"
 preserveAspectRatio="xMidYMid meet">

<g transform="translate(0.000000,200.000000) scale(0.100000,-0.100000)"
fill="#000000" stroke="none">
<path d="M320 1827 c-49 -16 -133 -102 -148 -153 -9 -30 -12 -183 -12 -565 0
-506 1 -526 21 -569 25 -55 62 -95 114 -123 38 -21 55 -22 343 -25 327 -4 336
-2 330 47 l-3 26 -305 5 c-337 6 -345 7 -392 72 l-23 33 0 542 c0 531 0 542
21 569 11 15 33 37 48 48 26 20 41 21 417 24 435 3 434 3 487 -66 l27 -35 5
-305 c5 -276 7 -306 23 -316 12 -8 22 -8 35 0 16 10 17 37 17 320 0 300 -1
310 -22 350 -28 53 -91 107 -142 122 -52 16 -791 15 -841 -1z"/>
<path d="M612 1578 c-6 -6 -12 -20 -12 -29 0 -34 24 -40 150 -37 104 3 125 6
134 21 8 12 8 22 0 35 -9 14 -30 17 -135 20 -88 2 -128 -1 -137 -10z"/>
<path d="M386 1347 c-11 -8 -17 -23 -14 -38 l3 -24 370 0 370 0 3 24 c7 49 -5
51 -373 51 -265 0 -345 -3 -359 -13z"/>
<path d="M382 1188 c-16 -16 -15 -43 2 -57 9 -8 114 -11 366 -9 323 3 354 4
364 21 8 12 8 22 0 35 -10 16 -41 17 -365 20 -268 2 -358 -1 -367 -10z"/>
<path d="M377 1033 c-17 -17 -6 -54 19 -63 34 -13 664 -13 699 0 21 8 26 16
23 38 l-3 27 -366 3 c-201 1 -368 -1 -372 -5z"/>
<path d="M1330 999 c-213 -42 -370 -267 -331 -477 42 -229 255 -383 477 -345
280 48 433 346 309 599 -52 107 -171 197 -293 223 -60 13 -98 13 -162 0z m161
-63 c110 -25 197 -98 248 -205 22 -47 26 -70 26 -141 0 -72 -4 -94 -28 -146
-36 -77 -104 -145 -182 -181 -51 -24 -73 -28 -145 -28 -71 0 -94 4 -142 27
-114 53 -186 147 -209 270 -38 207 130 409 346 417 17 0 55 -5 86 -13z"/>
<path d="M1340 872 c-46 -25 -80 -91 -80 -154 0 -40 -3 -48 -19 -48 -10 0 -22
-7 -25 -16 -9 -23 -7 -297 2 -312 7 -9 53 -12 198 -10 l189 3 0 165 c0 163 0
165 -22 168 -20 3 -23 9 -23 54 0 95 -52 158 -139 165 -33 3 -56 -1 -81 -15z
m131 -71 c24 -25 29 -37 29 -80 l0 -51 -91 0 -91 0 4 57 c4 46 10 61 32 80 38
32 80 30 117 -6z m79 -301 l0 -110 -140 0 -140 0 0 110 0 110 140 0 140 0 0
-110z"/>
<path d="M382 878 c-7 -7 -12 -19 -12 -28 0 -38 16 -40 317 -40 282 0 293 1
303 20 8 14 8 26 0 40 -10 19 -21 20 -303 20 -215 0 -296 -3 -305 -12z"/>
<path d="M377 723 c-14 -13 -6 -53 12 -63 12 -6 116 -10 268 -10 269 0 288 3
281 51 l-3 24 -276 3 c-151 1 -278 -1 -282 -5z"/>
</g>
</svg>
